<?xml version="1.0" encoding="utf-8"?>
<!-- Generator: Adobe Illustrator 19.2.1, SVG Export Plug-In . SVG Version: 6.00 Build 0)  -->
<svg version="1.1" id="Layer_1" xmlns="http://www.w3.org/2000/svg" xmlns:xlink="http://www.w3.org/1999/xlink" x="0px" y="0px"
	 viewBox="0 0 612 192" style="enable-background:new 0 0 612 192;" xml:space="preserve">
<style type="text/css">
	.st0{fill:#fff;}
</style>
<g id="XMLID_20_">
	<path id="XMLID_16_" class="st0" d="M52.5,40.3h0.6l18.5,51.1H34L52.5,40.3z M44.6,22.5L1.8,135.8H18L29,105.1h47.6l10.9,30.7h16.1
		L61,22.5H44.6z"/>
	<rect id="XMLID_15_" x="112.1" y="22.5" class="st0" width="14.6" height="113.3"/>
	<g id="XMLID_19_">
		<path id="XMLID_12_" class="st0" d="M156.8,125h-0.6l0.6,10.8V170h-14.6V58.2h13.9V69h0.6c4.4-7.1,14.1-13.3,26.4-13.3
			c19.6,0,36.9,17.6,36.9,41.3c0,23.7-17.3,41.3-36.9,41.3C170.9,138.3,161.2,132.2,156.8,125 M205.5,97c0-17.4-11.7-28-24.7-28
			c-13,0-24.7,10.3-24.7,28c0,17.7,11.7,28,24.7,28C193.8,125,205.5,114.4,205.5,97"/>
		<path id="XMLID_11_" class="st0" d="M245.6,58.2L244.9,69h0.6c4.1-7.1,13.9-13.3,24.5-13.3c19.8,0,29.6,13.5,29.6,32.6v47.5h-14.6
			V90.5c0-16.1-8.1-21.5-19.2-21.5c-12.7,0-20.4,12-20.4,23.9v42.9H231V22.5h14.6V58.2z"/>
		<path id="XMLID_8_" class="st0" d="M311.6,112.4c0-17.6,15.8-27.1,34-27.1c10.4,0,18,3,21.1,4.8v-2.2c0-11.7-9.3-18.8-20.3-18.8
			c-8.1,0-15.8,4-18.5,11.2l-13.3-5.7c2.7-7.1,12-18.8,31.5-18.8c19,0,34.5,11.4,34.5,33.2v46.9h-13.9V125H366
			c-4.3,6.5-12.2,13.3-25.5,13.3C324.7,138.3,311.6,128.5,311.6,112.4 M366.7,102.4c0,0-6.2-5.1-18.5-5.1
			c-15.4,0-21.4,8.2-21.4,15.4c0,8.2,8.5,12.3,16.1,12.3C354.5,125,366.7,115.1,366.7,102.4"/>
		<path id="XMLID_5_" class="st0" d="M410,125h-0.6v10.8h-13.9V22.5H410v35.8L409.4,69h0.6c4.4-7.1,14.1-13.3,26.4-13.3
			c19.6,0,36.9,17.6,36.9,41.3c0,23.7-17.3,41.3-36.9,41.3C424.1,138.3,414.5,132.2,410,125 M458.8,97c0-17.4-11.7-28-24.7-28
			c-13,0-24.7,10.3-24.7,28c0,17.7,11.7,28,24.7,28C447.1,125,458.8,114.4,458.8,97"/>
		<path id="XMLID_2_" class="st0" d="M481.4,97c0-22,15.2-41.3,38-41.3c23.1,0,38,16.3,38,41.3c0,1.1-0.2,2.7-0.2,2.7H496
			c0.8,16.5,12.7,25.3,24.7,25.3c8.5,0,17.1-3.5,21.2-13.3l13,5.4c-4.6,11.1-16,21.2-33.9,21.2C497.2,138.3,481.4,120.4,481.4,97
			 M519.1,69c-10.8,0-19.3,7.3-22.2,18.7h45C541.4,80.9,535.7,69,519.1,69"/>
		<path id="XMLID_1_" class="st0" d="M575.3,112.2V71.5h-13.6V58.2h13.6V34.5h14.6v23.7h19v13.3h-19v39.6c0,8.7,3.6,12.7,10.4,12.7
			c2.7,0,4.6-0.3,6.6-1.3L612,135c-3.3,1.4-6.8,2.1-11.7,2.1C584,137.1,575.3,128,575.3,112.2"/>
	</g>
</g>
</svg>
